<?xml version="1.0" standalone="yes"?>

<svg version="1.1" viewBox="0.0 0.0 428.40682414698165 123.11548556430446" fill="none" stroke="none" stroke-linecap="square" stroke-miterlimit="10" xmlns="http://www.w3.org/2000/svg" xmlns:xlink="http://www.w3.org/1999/xlink"><clipPath id="p.0"><path d="m0 0l428.40683 0l0 123.115486l-428.40683 0l0 -123.115486z" clip-rule="nonzero"></path></clipPath><g clip-path="url(#p.0)"><path fill="#000000" fill-opacity="0.0" d="m0 0l428.40683 0l0 123.115486l-428.40683 0z" fill-rule="evenodd"></path><path fill="#000000" fill-opacity="0.0" d="m264.71756 107.896324l3.2910767 -12.459007l0 0c19.748138 -8.320557 27.799255 -26.481949 18.600098 -41.95729c-9.199188 -15.475346 -32.638046 -23.200054 -54.149582 -17.84599c-21.511536 5.3540688 -34.05568 22.034695 -28.980087 38.536366c5.075592 16.501678 26.109848 27.42392 48.59433 25.233086z" fill-rule="evenodd"></path><path stroke="#000000" stroke-width="4.0" stroke-linejoin="round" stroke-linecap="butt" d="m264.71756 107.896324l3.2910767 -12.459007l0 0c19.748138 -8.320557 27.799255 -26.481949 18.600098 -41.95729c-9.199188 -15.475346 -32.638046 -23.200054 -54.149582 -17.84599c-21.511536 5.3540688 -34.05568 22.034695 -28.980087 38.536366c5.075592 16.501678 26.109848 27.42392 48.59433 25.233086z" fill-rule="evenodd"></path><path fill="#000000" fill-opacity="0.0" d="m15.548556 8.039371l190.29921 0l0 81.70079l-190.29921 0z" fill-rule="evenodd"></path><path fill="#674ea7" d="m69.42355 93.83936q-1.75 -2.953125 -4.03125 -6.625q-2.2812462 -3.6875 -4.921871 -7.640625q-2.640625 -3.96875 -5.484375 -8.046875q-2.84375 -4.09375 -5.640625 -7.890621q-2.796875 -3.796875 -5.4375 -7.15625q-2.640625 -3.359375 -4.875 -5.921875l0 43.281246l-7.609375 0l0 -55.437496l6.171875 0q3.75 4.0 8.03125 9.328125q4.28125 5.3125 8.484375 10.953125q4.203125 5.640621 7.921875 11.078121q3.7187462 5.4375 6.281246 9.671875l0 -41.031246l7.59375 0l0 55.437496l-6.484375 0zm53.59932 -6.71875l0 6.71875l-33.359375 0l0 -55.437496l7.765625 0l0 48.718746l25.59375 0zm22.879333 -49.281246q11.6875 0 17.96875 4.4375q6.28125 4.4375 6.28125 13.25q0 4.796875 -1.71875 8.203125q-1.71875 3.3906212 -4.96875 5.515621q-3.234375 2.109375 -7.875 3.078125q-4.640625 0.953125 -10.484375 0.953125l-6.15625 0l0 20.5625l-7.765625 0l0 -54.64062q3.28125 -0.796875 7.3125 -1.078125q4.046875 -0.28125 7.40625 -0.28125zm0.640625 6.796875q-4.953125 0 -7.59375 0.25l0 21.749996l5.84375 0q4.0 0 7.1875 -0.515625q3.203125 -0.515625 5.40625 -1.75q2.203125 -1.2499962 3.40625 -3.4062462q1.203125 -2.171875 1.203125 -5.53125q0 -3.1875 -1.25 -5.265625q-1.234375 -2.09375 -3.359375 -3.328125q-2.125 -1.234375 -4.921875 -1.71875q-2.796875 -0.484375 -5.921875 -0.484375z" fill-rule="nonzero"></path><path fill="#000000" d="m191.82341 94.63624q-6.875 -0.15625 -9.765625 -2.953125q-2.875 -2.796875 -2.875 -8.71875l0 -49.92187l7.453125 -1.2812519l0 50.0q0 1.84375 0.3125 3.046875q0.3125 1.1875 1.03125 1.90625q0.734375 0.71875 1.921875 1.078125q1.203125 0.359375 2.96875 0.609375l-1.046875 6.234375z" fill-rule="nonzero"></path><path fill="#000000" fill-opacity="0.0" d="m283.5853 8.039371l219.18112 0l0 97.637794l-219.18112 0z" fill-rule="evenodd"></path><path fill="#000000" d="m305.94467 52.245617l15.765625 0l0 6.234375l-15.765625 0l0 19.203121q0 3.109375 0.46875 5.15625q0.484375 2.046875 1.4375 3.203125q0.96875 1.15625 2.40625 1.640625q1.453125 0.46875 3.375 0.46875q3.359375 0 5.390625 -0.75q2.046875 -0.765625 2.84375 -1.078125l1.4375 6.15625q-1.125 0.5625 -3.921875 1.390625q-2.796875 0.84375 -6.390625 0.84375q-4.25 0 -7.015625 -1.078125q-2.75 -1.078125 -4.4375 -3.234375q-1.671875 -2.15625 -2.359375 -5.3125q-0.671875 -3.171875 -0.671875 -7.328125l0 -37.124996l7.4375 -1.28125l0 12.890625zm37.6756 42.39062q-6.875 -0.15625 -9.765625 -2.953125q-2.875 -2.796875 -2.875 -8.71875l0 -49.92187l7.453125 -1.2812519l0 50.0q0 1.84375 0.3125 3.046875q0.3125 1.1875 1.03125 1.90625q0.734375 0.71875 1.921875 1.078125q1.203125 0.359375 2.96875 0.609375l-1.046875 6.234375zm16.808746 -0.796875l-7.4375 0l0 -41.593746l7.4375 0l0 41.593746zm-3.765625 -49.124996q-2.0 0 -3.40625 -1.3125q-1.390625 -1.328125 -1.390625 -3.5625q0 -2.234375 1.390625 -3.546875q1.40625 -1.328125 3.40625 -1.328125q2.0 0 3.390625 1.328125q1.40625 1.3125 1.40625 3.546875q0 2.234375 -1.40625 3.5625q-1.390625 1.3125 -3.390625 1.3125zm24.005585 9.359375q1.359375 -0.875 4.109375 -1.828125q2.765625 -0.96875 6.359375 -0.96875q4.484375 0 7.96875 1.609375q3.484375 1.59375 5.875 4.484375q2.40625 2.875 3.640625 6.874996q1.25 4.0 1.25 8.796875q0 5.03125 -1.484375 9.078125q-1.484375 4.03125 -4.203125 6.84375q-2.71875 2.796875 -6.5625 4.3125q-3.84375 1.515625 -8.640625 1.515625q-5.203125 0 -9.203125 -0.71875q-4.0 -0.71875 -6.546875 -1.4375l0 -59.593746l7.4375 -1.2812519l0 22.312502zm0 33.281246q1.109375 0.328125 3.15625 0.609375q2.046875 0.28125 5.078125 0.28125q6.0 0 9.59375 -3.953125q3.609375 -3.96875 3.609375 -11.25q0 -3.203125 -0.640625 -6.0q-0.640625 -2.796875 -2.078125 -4.843746q-1.4375 -2.046875 -3.71875 -3.203125q-2.28125 -1.15625 -5.484375 -1.15625q-3.046875 0 -5.609375 1.046875q-2.546875 1.03125 -3.90625 2.15625l0 26.312496z" fill-rule="nonzero"></path></g></svg>

